# OBJ written from D:\Projects\Speed Projects\Doodles\Dice.obj
# Units	meters

o Dice
v -0.15 -0.19 -0.15
v -0.19 -0.15 -0.15
v -0.15 -0.15 -0.19
v -0.19 0.15 -0.15
v -0.15 0.19 -0.15
v -0.15 0.15 -0.19
v 0.15 0.19 -0.15
v 0.19 0.15 -0.15
v 0.15 0.15 -0.19
v 0.15 -0.15 -0.19
v 0.19 -0.15 -0.15
v 0.15 -0.19 -0.15
v -0.15 -0.19 0.15
v -0.15 -0.15 0.19
v -0.19 -0.15 0.15
v -0.15 0.15 0.19
v -0.15 0.19 0.15
v -0.19 0.15 0.15
v 0.15 0.15 0.19
v 0.19 0.15 0.15
v 0.15 0.19 0.15
v 0.15 -0.15 0.19
v 0.15 -0.19 0.15
v 0.19 -0.15 0.15
v -0.186955 0.15 -0.165307
v -0.186955 -0.15 -0.165307
v -0.178284 0.15 -0.178284
v -0.178284 -0.15 -0.178284
v -0.165307 0.15 -0.186955
v -0.165307 -0.15 -0.186955
v 0.165307 -0.15 0.186955
v 0.165307 0.15 0.186955
v 0.178284 -0.15 0.178284
v 0.178284 0.15 0.178284
v 0.186955 -0.15 0.165307
v 0.186955 0.15 0.165307
v -0.15 -0.165307 0.186955
v 0.15 -0.165307 0.186955
v -0.15 -0.178284 0.178284
v 0.15 -0.178284 0.178284
v -0.15 -0.186955 0.165307
v 0.15 -0.186955 0.165307
v 0.15 0.165307 0.186955
v -0.15 0.165307 0.186955
v 0.15 0.178284 0.178284
v -0.15 0.178284 0.178284
v 0.15 0.186955 0.165307
v -0.15 0.186955 0.165307
v 0.165307 -0.186955 -0.15
v 0.165307 -0.186955 0.15
v 0.178284 -0.178284 -0.15
v 0.178284 -0.178284 0.15
v 0.186955 -0.165307 -0.15
v 0.186955 -0.165307 0.15
v -0.165307 0.15 0.186955
v -0.165307 -0.15 0.186955
v -0.178284 0.15 0.178284
v -0.178284 -0.15 0.178284
v -0.186955 0.15 0.165307
v -0.186955 -0.15 0.165307
v 0.186955 0.165307 -0.15
v 0.186955 0.165307 0.15
v 0.178284 0.178284 -0.15
v 0.178284 0.178284 0.15
v 0.165307 0.186955 -0.15
v 0.165307 0.186955 0.15
v -0.186955 0.165307 0.15
v -0.186955 0.165307 -0.15
v -0.178284 0.178284 0.15
v -0.178284 0.178284 -0.15
v -0.165307 0.186955 0.15
v -0.165307 0.186955 -0.15
v 0.186955 -0.15 -0.165307
v 0.186955 0.15 -0.165307
v 0.178284 -0.15 -0.178284
v 0.178284 0.15 -0.178284
v 0.165307 -0.15 -0.186955
v 0.165307 0.15 -0.186955
v -0.165307 -0.186955 0.15
v -0.165307 -0.186955 -0.15
v -0.178284 -0.178284 0.15
v -0.178284 -0.178284 -0.15
v -0.186955 -0.165307 0.15
v -0.186955 -0.165307 -0.15
v -0.15 -0.186955 -0.165307
v 0.15 -0.186955 -0.165307
v -0.15 -0.178284 -0.178284
v 0.15 -0.178284 -0.178284
v -0.15 -0.165307 -0.186955
v 0.15 -0.165307 -0.186955
v 0.15 0.186955 -0.165307
v -0.15 0.186955 -0.165307
v 0.15 0.178284 -0.178284
v -0.15 0.178284 -0.178284
v 0.15 0.165307 -0.186955
v -0.15 0.165307 -0.186955
v -0.174379 -0.174379 -0.174379
v -0.164379 -0.177308 -0.177308
v -0.165607 -0.184157 -0.165607
v -0.177308 -0.177308 -0.164379
v -0.184157 -0.165607 -0.165607
v -0.177308 -0.164379 -0.177308
v -0.165607 -0.165607 -0.184157
v -0.174379 0.174379 -0.174379
v -0.177308 0.164379 -0.177308
v -0.184157 0.165607 -0.165607
v -0.177308 0.177308 -0.164379
v -0.165607 0.184157 -0.165607
v -0.164379 0.177308 -0.177308
v -0.165607 0.165607 -0.184157
v 0.174379 0.174379 -0.174379
v 0.164379 0.177308 -0.177308
v 0.165607 0.184157 -0.165607
v 0.177308 0.177308 -0.164379
v 0.184157 0.165607 -0.165607
v 0.177308 0.164379 -0.177308
v 0.165607 0.165607 -0.184157
v 0.174379 -0.174379 -0.174379
v 0.164379 -0.177308 -0.177308
v 0.165607 -0.165607 -0.184157
v 0.177308 -0.164379 -0.177308
v 0.184157 -0.165607 -0.165607
v 0.177308 -0.177308 -0.164379
v 0.165607 -0.184157 -0.165607
v -0.174379 -0.174379 0.174379
v -0.177308 -0.177308 0.164379
v -0.165607 -0.184157 0.165607
v -0.164379 -0.177308 0.177308
v -0.165607 -0.165607 0.184157
v -0.177308 -0.164379 0.177308
v -0.184157 -0.165607 0.165607
v -0.174379 0.174379 0.174379
v -0.177308 0.164379 0.177308
v -0.165607 0.165607 0.184157
v -0.164379 0.177308 0.177308
v -0.165607 0.184157 0.165607
v -0.177308 0.177308 0.164379
v -0.184157 0.165607 0.165607
v 0.174379 0.174379 0.174379
v 0.164379 0.177308 0.177308
v 0.165607 0.165607 0.184157
v 0.177308 0.164379 0.177308
v 0.184157 0.165607 0.165607
v 0.177308 0.177308 0.164379
v 0.165607 0.184157 0.165607
v 0.174379 -0.174379 0.174379
v 0.177308 -0.164379 0.177308
v 0.165607 -0.165607 0.184157
v 0.164379 -0.177308 0.177308
v 0.165607 -0.184157 0.165607
v 0.177308 -0.177308 0.164379
v 0.184157 -0.165607 0.165607
vn -0.990435 -0.0975669 -0.0975669
vn -0.990435 0.0975669 -0.0975669
vn -0.920438 0.0840481 -0.381747
vn -0.920438 -0.0840481 -0.381747
vn -0.705369 0.0700577 -0.705369
vn -0.705369 -0.0700577 -0.705369
vn -0.381747 0.0840481 -0.920438
vn -0.381747 -0.0840481 -0.920438
vn -0.0975669 0.0975669 -0.990435
vn -0.0975669 -0.0975669 -0.990435
vn 0.0975669 0.0975669 0.990435
vn 0.0975669 -0.0975669 0.990435
vn 0.381747 -0.0840481 0.920438
vn 0.381747 0.0840481 0.920438
vn 0.705369 -0.0700577 0.705369
vn 0.705369 0.0700577 0.705369
vn 0.920438 -0.0840481 0.381747
vn 0.920438 0.0840481 0.381747
vn 0.990435 -0.0975669 0.0975669
vn 0.990435 0.0975669 0.0975669
vn -0.0975669 -0.0975669 0.990435
vn -0.0840481 -0.381747 0.920438
vn 0.0840481 -0.381747 0.920438
vn -0.0700577 -0.705369 0.705369
vn 0.0700577 -0.705369 0.705369
vn -0.0840481 -0.920438 0.381747
vn 0.0840481 -0.920438 0.381747
vn -0.0975669 -0.990435 0.0975669
vn 0.0975669 -0.990435 0.0975669
vn -0.0975669 0.0975669 0.990435
vn 0.0840481 0.381747 0.920438
vn -0.0840481 0.381747 0.920438
vn 0.0700577 0.705369 0.705369
vn -0.0700577 0.705369 0.705369
vn 0.0840481 0.920438 0.381747
vn -0.0840481 0.920438 0.381747
vn 0.0975669 0.990435 0.0975669
vn -0.0975669 0.990435 0.0975669
vn 0.0975669 -0.990435 -0.0975669
vn 0.381747 -0.920438 -0.0840481
vn 0.381747 -0.920438 0.0840481
vn 0.705369 -0.705369 -0.0700577
vn 0.705369 -0.705369 0.0700577
vn 0.920438 -0.381747 -0.0840481
vn 0.920438 -0.381747 0.0840481
vn 0.990435 -0.0975669 -0.0975669
vn -0.381747 0.0840481 0.920438
vn -0.381747 -0.0840481 0.920438
vn -0.705369 0.0700577 0.705369
vn -0.705369 -0.0700577 0.705369
vn -0.920438 0.0840481 0.381747
vn -0.920438 -0.0840481 0.381747
vn -0.990435 0.0975669 0.0975669
vn -0.990435 -0.0975669 0.0975669
vn 0.990435 0.0975669 -0.0975669
vn 0.920438 0.381747 -0.0840481
vn 0.920438 0.381747 0.0840481
vn 0.705369 0.705369 -0.0700577
vn 0.705369 0.705369 0.0700577
vn 0.381747 0.920438 -0.0840481
vn 0.381747 0.920438 0.0840481
vn 0.0975669 0.990435 -0.0975669
vn -0.920438 0.381747 0.0840481
vn -0.920438 0.381747 -0.0840481
vn -0.705369 0.705369 0.0700577
vn -0.705369 0.705369 -0.0700577
vn -0.381747 0.920438 0.0840481
vn -0.381747 0.920438 -0.0840481
vn -0.0975669 0.990435 -0.0975669
vn 0.920438 -0.0840481 -0.381747
vn 0.920438 0.0840481 -0.381747
vn 0.705369 -0.0700577 -0.705369
vn 0.705369 0.0700577 -0.705369
vn 0.381747 -0.0840481 -0.920438
vn 0.381747 0.0840481 -0.920438
vn 0.0975669 -0.0975669 -0.990435
vn 0.0975669 0.0975669 -0.990435
vn -0.0975669 -0.990435 -0.0975669
vn -0.381747 -0.920438 0.0840481
vn -0.381747 -0.920438 -0.0840481
vn -0.705369 -0.705369 0.0700577
vn -0.705369 -0.705369 -0.0700577
vn -0.920438 -0.381747 0.0840481
vn -0.920438 -0.381747 -0.0840481
vn -0.0840481 -0.920438 -0.381747
vn 0.0840481 -0.920438 -0.381747
vn -0.0700577 -0.705369 -0.705369
vn 0.0700577 -0.705369 -0.705369
vn -0.0840481 -0.381747 -0.920438
vn 0.0840481 -0.381747 -0.920438
vn 0.0840481 0.920438 -0.381747
vn -0.0840481 0.920438 -0.381747
vn 0.0700577 0.705369 -0.705369
vn -0.0700577 0.705369 -0.705369
vn 0.0840481 0.381747 -0.920438
vn -0.0840481 0.381747 -0.920438
vn -0.352351 -0.867005 -0.352351
vn -0.319565 -0.670029 -0.670029
vn -0.670029 -0.670029 -0.319565
vn -0.57735 -0.57735 -0.57735
vn -0.867005 -0.352351 -0.352351
vn -0.670029 -0.319565 -0.670029
vn -0.352351 -0.352351 -0.867005
vn -0.867005 0.352351 -0.352351
vn -0.670029 0.319565 -0.670029
vn -0.670029 0.670029 -0.319565
vn -0.57735 0.57735 -0.57735
vn -0.352351 0.867005 -0.352351
vn -0.319565 0.670029 -0.670029
vn -0.352351 0.352351 -0.867005
vn 0.352351 0.867005 -0.352351
vn 0.319565 0.670029 -0.670029
vn 0.670029 0.670029 -0.319565
vn 0.57735 0.57735 -0.57735
vn 0.867005 0.352351 -0.352351
vn 0.670029 0.319565 -0.670029
vn 0.352351 0.352351 -0.867005
vn 0.352351 -0.352351 -0.867005
vn 0.319565 -0.670029 -0.670029
vn 0.670029 -0.319565 -0.670029
vn 0.57735 -0.57735 -0.57735
vn 0.867005 -0.352351 -0.352351
vn 0.670029 -0.670029 -0.319565
vn 0.352351 -0.867005 -0.352351
vn -0.352351 -0.867005 0.352351
vn -0.670029 -0.670029 0.319565
vn -0.319565 -0.670029 0.670029
vn -0.57735 -0.57735 0.57735
vn -0.352351 -0.352351 0.867005
vn -0.670029 -0.319565 0.670029
vn -0.867005 -0.352351 0.352351
vn -0.352351 0.352351 0.867005
vn -0.670029 0.319565 0.670029
vn -0.319565 0.670029 0.670029
vn -0.57735 0.57735 0.57735
vn -0.352351 0.867005 0.352351
vn -0.670029 0.670029 0.319565
vn -0.867005 0.352351 0.352351
vn 0.352351 0.352351 0.867005
vn 0.319565 0.670029 0.670029
vn 0.670029 0.319565 0.670029
vn 0.57735 0.57735 0.57735
vn 0.867005 0.352351 0.352351
vn 0.670029 0.670029 0.319565
vn 0.352351 0.867005 0.352351
vn 0.352351 -0.352351 0.867005
vn 0.670029 -0.319565 0.670029
vn 0.319565 -0.670029 0.670029
vn 0.57735 -0.57735 0.57735
vn 0.352351 -0.867005 0.352351
vn 0.670029 -0.670029 0.319565
vn 0.867005 -0.352351 0.352351
vt 0.365168 0.365168
vt 0.365168 0.634832
vt 0.351408 0.634832
vt 0.351408 0.365168
vt 0.339744 0.634832
vt 0.339744 0.365168
vt 0.660256 0.0318345
vt 0.660256 0.301499
vt 0.648592 0.301499
vt 0.648592 0.0318345
vt 0.634832 0.301499
vt 0.634832 0.0318345
vt 0.301499 0.301499
vt 0.301499 0.0318345
vt 0.315258 0.0318345
vt 0.315258 0.301499
vt 0.326923 0.0318345
vt 0.326923 0.301499
vt 0.00641026 0.634832
vt 0.00641026 0.365168
vt 0.018075 0.365168
vt 0.018075 0.634832
vt 0.0318345 0.365168
vt 0.0318345 0.634832
vt 0.0318345 0.0318345
vt 0.0318345 0.018075
vt 0.301499 0.018075
vt 0.0318345 0.00641026
vt 0.301499 0.00641026
vt 0.968166 0.326923
vt 0.698501 0.326923
vt 0.698501 0.315258
vt 0.968166 0.315258
vt 0.698501 0.301499
vt 0.968166 0.301499
vt 0.0318345 0.301499
vt 0.301499 0.315258
vt 0.0318345 0.315258
vt 0.301499 0.326923
vt 0.0318345 0.326923
vt 0.968166 0.660256
vt 0.698501 0.660256
vt 0.698501 0.648592
vt 0.968166 0.648592
vt 0.698501 0.634832
vt 0.968166 0.634832
vt 0.968166 0.0318345
vt 0.981925 0.0318345
vt 0.981925 0.301499
vt 0.99359 0.0318345
vt 0.99359 0.301499
vt 0.0318345 0.339744
vt 0.301499 0.339744
vt 0.301499 0.351408
vt 0.0318345 0.351408
vt 0.301499 0.365168
vt 0.018075 0.301499
vt 0.018075 0.0318345
vt 0.00641026 0.301499
vt 0.00641026 0.0318345
vt 0.660256 0.365168
vt 0.660256 0.634832
vt 0.648592 0.634832
vt 0.648592 0.365168
vt 0.634832 0.634832
vt 0.634832 0.365168
vt 0.301499 0.634832
vt 0.301499 0.648592
vt 0.0318345 0.648592
vt 0.301499 0.660256
vt 0.0318345 0.660256
vt 0.673077 0.634832
vt 0.673077 0.365168
vt 0.684742 0.365168
vt 0.684742 0.634832
vt 0.698501 0.365168
vt 0.634832 0.648592
vt 0.365168 0.648592
vt 0.634832 0.660256
vt 0.365168 0.660256
vt 0.99359 0.365168
vt 0.99359 0.634832
vt 0.981925 0.634832
vt 0.981925 0.365168
vt 0.968166 0.365168
vt 0.315258 0.365168
vt 0.315258 0.634832
vt 0.326923 0.365168
vt 0.326923 0.634832
vt 0.339744 0.301499
vt 0.339744 0.0318345
vt 0.351408 0.0318345
vt 0.351408 0.301499
vt 0.365168 0.0318345
vt 0.365168 0.301499
vt 0.698501 0.0318345
vt 0.684742 0.301499
vt 0.684742 0.0318345
vt 0.673077 0.301499
vt 0.673077 0.0318345
vt 0.365168 0.339744
vt 0.634832 0.339744
vt 0.634832 0.351408
vt 0.365168 0.351408
vt 0.698501 0.018075
vt 0.968166 0.018075
vt 0.698501 0.00641026
vt 0.968166 0.00641026
vt 0.365168 0.00641026
vt 0.634832 0.00641026
vt 0.634832 0.018075
vt 0.365168 0.018075
vt 0.698501 0.351408
vt 0.968166 0.351408
vt 0.698501 0.339744
vt 0.968166 0.339744
vt 0.634832 0.326923
vt 0.365168 0.326923
vt 0.365168 0.315258
vt 0.634832 0.315258
vt 0.684472 0.0178058
vt 0.685576 0.00728784
vt 0.673954 0.0189094
vt 0.676587 0.00992061
vt 0.351139 0.351139
vt 0.352243 0.340621
vt 0.340621 0.352243
vt 0.343254 0.343254
vt 0.648861 0.0178058
vt 0.659379 0.0189094
vt 0.647757 0.00728784
vt 0.656746 0.00992061
vt 0.351139 0.648861
vt 0.340621 0.647757
vt 0.352243 0.659379
vt 0.343254 0.656746
vt 0.982194 0.351139
vt 0.992712 0.352243
vt 0.981091 0.340621
vt 0.990079 0.343254
vt 0.648861 0.315528
vt 0.647757 0.326045
vt 0.659379 0.314424
vt 0.656746 0.323413
vt 0.684472 0.351139
vt 0.685576 0.340621
vt 0.673954 0.352243
vt 0.676587 0.343254
vt 0.315528 0.648861
vt 0.314424 0.659379
vt 0.326045 0.647757
vt 0.323413 0.656746
vt 0.351139 0.315528
vt 0.340621 0.314424
vt 0.352243 0.326045
vt 0.343254 0.323413
vt 0.351139 0.0178058
vt 0.352243 0.00728784
vt 0.340621 0.0189094
vt 0.343254 0.00992061
vt 0.315528 0.351139
vt 0.326045 0.352243
vt 0.314424 0.340621
vt 0.323413 0.343254
vt 0.982194 0.0178058
vt 0.992712 0.0189094
vt 0.981091 0.00728784
vt 0.990079 0.00992061
vt 0.684472 0.315528
vt 0.673954 0.314424
vt 0.685576 0.326045
vt 0.676587 0.323413
vt 0.0178058 0.0178058
vt 0.0189094 0.00728784
vt 0.00728784 0.0189094
vt 0.00992061 0.00992061
vt 0.648861 0.351139
vt 0.659379 0.352243
vt 0.647757 0.340621
vt 0.656746 0.343254
vt 0.0178058 0.315528
vt 0.00728784 0.314424
vt 0.0189094 0.326045
vt 0.00992061 0.323413
vt 0.982194 0.648861
vt 0.981091 0.659379
vt 0.992712 0.647757
vt 0.990079 0.656746
vt 0.648861 0.648861
vt 0.647757 0.659379
vt 0.659379 0.647757
vt 0.656746 0.656746
vt 0.315528 0.315528
vt 0.314424 0.326045
vt 0.326045 0.314424
vt 0.323413 0.323413
vt 0.0178058 0.648861
vt 0.00728784 0.647757
vt 0.0189094 0.659379
vt 0.00992061 0.656746
vt 0.684472 0.648861
vt 0.673954 0.647757
vt 0.685576 0.659379
vt 0.676587 0.656746
vt 0.315528 0.0178058
vt 0.326045 0.0189094
vt 0.314424 0.00728784
vt 0.323413 0.00992061
vt 0.982194 0.315528
vt 0.981091 0.326045
vt 0.992712 0.314424
vt 0.990079 0.323413
vt 0.0178058 0.351139
vt 0.0189094 0.340621
vt 0.00728784 0.352243
vt 0.00992061 0.343254
mtllib Dice.mtl
usemtl Dice
g Default
f 2/1/1 4/2/2 25/3/3 26/4/4
f 26/4/4 25/3/3 27/5/5 28/6/6
f 28/7/6 27/8/5 29/9/7 30/10/8
f 30/10/8 29/9/7 6/11/9 3/12/10
f 19/13/11 22/14/12 31/15/13 32/16/14
f 32/16/14 31/15/13 33/17/15 34/18/16
f 34/19/16 33/20/15 35/21/17 36/22/18
f 36/22/18 35/21/17 24/23/19 20/24/20
f 22/14/12 14/25/21 37/26/22 38/27/23
f 38/27/23 37/26/22 39/28/24 40/29/25
f 40/30/25 39/31/24 41/32/26 42/33/27
f 42/33/27 41/32/26 13/34/28 23/35/29
f 16/36/30 19/13/11 43/37/31 44/38/32
f 44/38/32 43/37/31 45/39/33 46/40/34
f 46/41/34 45/42/33 47/43/35 48/44/36
f 48/44/36 47/43/35 21/45/37 17/46/38
f 23/35/29 12/47/39 49/48/40 50/49/41
f 50/49/41 49/48/40 51/50/42 52/51/43
f 52/52/43 51/53/42 53/54/44 54/55/45
f 54/55/45 53/54/44 11/56/46 24/23/19
f 14/25/21 16/36/30 55/57/47 56/58/48
f 56/58/48 55/57/47 57/59/49 58/60/50
f 58/61/50 57/62/49 59/63/51 60/64/52
f 60/64/52 59/63/51 18/65/53 15/66/54
f 20/24/20 8/67/55 61/68/56 62/69/57
f 62/69/57 61/68/56 63/70/58 64/71/59
f 64/72/59 63/73/58 65/74/60 66/75/61
f 66/75/61 65/74/60 7/76/62 21/45/37
f 4/2/2 18/65/53 67/77/63 68/78/64
f 68/78/64 67/77/63 69/79/65 70/80/66
f 70/81/66 69/82/65 71/83/67 72/84/68
f 72/84/68 71/83/67 17/46/38 5/85/69
f 8/67/55 11/56/46 73/86/70 74/87/71
f 74/87/71 73/86/70 75/88/72 76/89/73
f 76/90/73 75/91/72 77/92/74 78/93/75
f 78/93/75 77/92/74 10/94/76 9/95/77
f 1/96/78 13/34/28 79/97/79 80/98/80
f 80/98/80 79/97/79 81/99/81 82/100/82
f 82/101/82 81/102/81 83/103/83 84/104/84
f 84/104/84 83/103/83 15/66/54 2/1/1
f 12/47/39 1/96/78 85/105/85 86/106/86
f 86/106/86 85/105/85 87/107/87 88/108/88
f 88/109/88 87/110/87 89/111/89 90/112/90
f 90/112/90 89/111/89 3/12/10 10/94/76
f 5/85/69 7/76/62 91/113/91 92/114/92
f 92/114/92 91/113/91 93/115/93 94/116/94
f 94/117/94 93/118/93 95/119/95 96/120/96
f 96/120/96 95/119/95 9/95/77 6/11/9
f 1/96/78 80/98/80 99/121/97 85/105/85
f 85/105/85 99/121/97 98/122/98 87/107/87
f 80/98/80 82/100/82 100/123/99 99/121/97
f 99/121/97 100/123/99 97/124/100 98/122/98
f 2/1/1 26/4/4 101/125/101 84/104/84
f 84/104/84 101/125/101 100/126/99 82/101/82
f 26/4/4 28/6/6 102/127/102 101/125/101
f 101/125/101 102/127/102 97/128/100 100/126/99
f 3/12/10 89/111/89 103/129/103 30/10/8
f 30/10/8 103/129/103 102/130/102 28/7/6
f 89/111/89 87/110/87 98/131/98 103/129/103
f 103/129/103 98/131/98 97/132/100 102/130/102
f 4/2/2 68/78/64 106/133/104 25/3/3
f 25/3/3 106/133/104 105/134/105 27/5/5
f 68/78/64 70/80/66 107/135/106 106/133/104
f 106/133/104 107/135/106 104/136/107 105/134/105
f 5/85/69 92/114/92 108/137/108 72/84/68
f 72/84/68 108/137/108 107/138/106 70/81/66
f 92/114/92 94/116/94 109/139/109 108/137/108
f 108/137/108 109/139/109 104/140/107 107/138/106
f 6/11/9 29/9/7 110/141/110 96/120/96
f 96/120/96 110/141/110 109/142/109 94/117/94
f 29/9/7 27/8/5 105/143/105 110/141/110
f 110/141/110 105/143/105 104/144/107 109/142/109
f 7/76/62 65/74/60 113/145/111 91/113/91
f 91/113/91 113/145/111 112/146/112 93/115/93
f 65/74/60 63/73/58 114/147/113 113/145/111
f 113/145/111 114/147/113 111/148/114 112/146/112
f 8/67/55 74/87/71 115/149/115 61/68/56
f 61/68/56 115/149/115 114/150/113 63/70/58
f 74/87/71 76/89/73 116/151/116 115/149/115
f 115/149/115 116/151/116 111/152/114 114/150/113
f 9/95/77 95/119/95 117/153/117 78/93/75
f 78/93/75 117/153/117 116/154/116 76/90/73
f 95/119/95 93/118/93 112/155/112 117/153/117
f 117/153/117 112/155/112 111/156/114 116/154/116
f 10/94/76 77/92/74 120/157/118 90/112/90
f 90/112/90 120/157/118 119/158/119 88/109/88
f 77/92/74 75/91/72 121/159/120 120/157/118
f 120/157/118 121/159/120 118/160/121 119/158/119
f 11/56/46 53/54/44 122/161/122 73/86/70
f 73/86/70 122/161/122 121/162/120 75/88/72
f 53/54/44 51/53/42 123/163/123 122/161/122
f 122/161/122 123/163/123 118/164/121 121/162/120
f 12/47/39 86/106/86 124/165/124 49/48/40
f 49/48/40 124/165/124 123/166/123 51/50/42
f 86/106/86 88/108/88 119/167/119 124/165/124
f 124/165/124 119/167/119 118/168/121 123/166/123
f 13/34/28 41/32/26 127/169/125 79/97/79
f 79/97/79 127/169/125 126/170/126 81/99/81
f 41/32/26 39/31/24 128/171/127 127/169/125
f 127/169/125 128/171/127 125/172/128 126/170/126
f 14/25/21 56/58/48 129/173/129 37/26/22
f 37/26/22 129/173/129 128/174/127 39/28/24
f 56/58/48 58/60/50 130/175/130 129/173/129
f 129/173/129 130/175/130 125/176/128 128/174/127
f 15/66/54 83/103/83 131/177/131 60/64/52
f 60/64/52 131/177/131 130/178/130 58/61/50
f 83/103/83 81/102/81 126/179/126 131/177/131
f 131/177/131 126/179/126 125/180/128 130/178/130
f 16/36/30 44/38/32 134/181/132 55/57/47
f 55/57/47 134/181/132 133/182/133 57/59/49
f 44/38/32 46/40/34 135/183/134 134/181/132
f 134/181/132 135/183/134 132/184/135 133/182/133
f 17/46/38 71/83/67 136/185/136 48/44/36
f 48/44/36 136/185/136 135/186/134 46/41/34
f 71/83/67 69/82/65 137/187/137 136/185/136
f 136/185/136 137/187/137 132/188/135 135/186/134
f 18/65/53 59/63/51 138/189/138 67/77/63
f 67/77/63 138/189/138 137/190/137 69/79/65
f 59/63/51 57/62/49 133/191/133 138/189/138
f 138/189/138 133/191/133 132/192/135 137/190/137
f 19/13/11 32/16/14 141/193/139 43/37/31
f 43/37/31 141/193/139 140/194/140 45/39/33
f 32/16/14 34/18/16 142/195/141 141/193/139
f 141/193/139 142/195/141 139/196/142 140/194/140
f 20/24/20 62/69/57 143/197/143 36/22/18
f 36/22/18 143/197/143 142/198/141 34/19/16
f 62/69/57 64/71/59 144/199/144 143/197/143
f 143/197/143 144/199/144 139/200/142 142/198/141
f 21/45/37 47/43/35 145/201/145 66/75/61
f 66/75/61 145/201/145 144/202/144 64/72/59
f 47/43/35 45/42/33 140/203/140 145/201/145
f 145/201/145 140/203/140 139/204/142 144/202/144
f 22/14/12 38/27/23 148/205/146 31/15/13
f 31/15/13 148/205/146 147/206/147 33/17/15
f 38/27/23 40/29/25 149/207/148 148/205/146
f 148/205/146 149/207/148 146/208/149 147/206/147
f 23/35/29 50/49/41 150/209/150 42/33/27
f 42/33/27 150/209/150 149/210/148 40/30/25
f 50/49/41 52/51/43 151/211/151 150/209/150
f 150/209/150 151/211/151 146/212/149 149/210/148
f 24/23/19 35/21/17 152/213/152 54/55/45
f 54/55/45 152/213/152 151/214/151 52/52/43
f 35/21/17 33/20/15 147/215/147 152/213/152
f 152/213/152 147/215/147 146/216/149 151/214/151
f 6/11/9 9/95/77 10/94/76 3/12/10
f 18/65/53 4/2/2 2/1/1 15/66/54
f 21/45/37 7/76/62 5/85/69 17/46/38
f 24/23/19 11/56/46 8/67/55 20/24/20
f 13/34/28 1/96/78 12/47/39 23/35/29
f 22/14/12 19/13/11 16/36/30 14/25/21
